<?xml version="1.0" encoding="utf-8"?>
<!-- Generator: Adobe Illustrator 26.0.0, SVG Export Plug-In . SVG Version: 6.00 Build 0)  -->
<svg version="1.1" id="Calque_1" xmlns="http://www.w3.org/2000/svg" xmlns:xlink="http://www.w3.org/1999/xlink" x="0px" y="0px"
	 viewBox="0 0 800 800" style="enable-background:new 0 0 800 800;" xml:space="preserve">
<style type="text/css">
	.st0{fill:#D2D2D2;}
</style>
<path class="st0" d="M766.3,245.25c-19.92-47.1-48.4-89.42-84.64-125.81l-0.55-0.55c-4.73-4.73-9.6-9.36-14.47-13.77
	c-33.09-29.98-70.73-54.01-111.89-71.42c-6.7-2.83-13.55-5.51-20.36-7.96c-2.42-0.87-4.83-1.71-7.17-2.5
	c-17.64-5.96-35.82-10.7-54.03-14.08c-1.3-0.24-2.61-0.48-3.9-0.7c-22.68-3.98-45.99-6-69.28-6c-23.56,0-47.15,2.07-70.13,6.14
	c-1.32,0.23-2.64,0.47-3.95,0.72c-17.93,3.38-35.81,8.06-53.13,13.92c-2.35,0.79-4.77,1.63-7.18,2.5
	c-6.8,2.45-13.65,5.12-20.37,7.96c-41.15,17.41-78.79,41.44-111.88,71.41c-4.87,4.41-9.74,9.04-14.5,13.8l-0.53,0.54
	c-36.24,36.37-64.71,78.7-84.63,125.8C12.96,294.27,2.45,346.34,2.45,400c0,19.65,1.43,39.32,4.26,58.47v0.02l0.11,0.75
	c4.09,27.47,11.15,54.63,20.98,80.73c1.83,4.86,3.81,9.83,5.9,14.77c4.13,9.76,8.69,19.45,13.56,28.8
	c7.62,14.64,16.25,28.95,25.66,42.53c13.54,19.55,29.01,38.07,45.97,55.03c29.56,29.56,63.26,54.11,100.15,72.97
	c7.09,3.62,14.37,7.07,21.64,10.25c1.48,0.65,3.01,1.31,4.57,1.97c49.02,20.74,101.09,31.25,154.75,31.25
	c53.66,0,105.73-10.51,154.75-31.25c47.34-20.03,89.86-48.69,126.36-85.19c16.96-16.96,32.43-35.48,45.97-55.03
	c9.41-13.58,18.04-27.89,25.66-42.53c4.86-9.33,9.42-19.02,13.56-28.81c2.1-4.98,4.09-9.95,5.9-14.76l0.3-0.8
	c9.68-25.87,16.63-52.76,20.68-79.94c2.9-19.4,4.37-39.33,4.37-59.24C797.55,346.34,787.04,294.27,766.3,245.25z M667.12,151.65
	c62.95,67.67,97.61,155.87,97.61,248.35c0,4.81-0.1,9.75-0.29,14.69c-0.72,18.12-2.78,36.18-6.1,53.74L666.19,396V150.67
	C666.5,151,666.82,151.33,667.12,151.65z M132.88,151.65c0.3-0.33,0.62-0.65,0.92-0.98V396l-92.15,72.43
	c-3.32-17.56-5.38-35.62-6.1-53.74c-0.19-4.94-0.29-9.88-0.29-14.69C35.27,307.52,69.93,219.32,132.88,151.65z M218.74,716.57
	c-48.13-27.61-88.38-64.73-119.64-110.33c-0.1-0.15-0.2-0.3-0.31-0.45L273,468.85V57.99c0.95-0.35,1.9-0.7,2.85-1.05
	c17.51-6.34,35.64-11.35,53.87-14.91l0.27-0.05v469.48l-110.76,87.07l0.09,118.36C219.12,716.79,218.92,716.68,218.74,716.57z
	 M400,764.73c-44.64,0-88.32-8.05-129.93-23.89l199.11-156.51V41.82c0.08,0.02,0.17,0.03,0.25,0.05
	c18.56,3.57,36.97,8.64,54.74,15.08c0.95,0.34,1.89,0.69,2.84,1.04v410.86L701.22,605.8c-0.1,0.15-0.2,0.31-0.31,0.46
	C633.07,705.49,520.58,764.73,400,764.73z"/>
</svg>
